<svg width="94" height="85" viewBox="0 0 94 85" fill="none" xmlns="http://www.w3.org/2000/svg">
<rect x="0.5" width="93" height="85" rx="12" fill="#D8191E" fill-opacity="0.1"/>
<path d="M44.4743 28.404C45.9952 27.8207 47.6791 27.8207 49.2 28.404L60.0863 32.5778C60.707 32.816 61.2406 33.2362 61.617 33.7829C61.9934 34.3296 62.1948 34.9772 62.1947 35.6403V50.1347C62.1948 50.7978 61.9934 51.4453 61.617 51.992C61.2406 52.5387 60.707 52.9589 60.0863 53.1971L49.2 57.3731C47.6791 57.9564 45.9952 57.9564 44.4743 57.3731L33.5902 53.1971C32.9692 52.9592 32.435 52.5392 32.0583 51.9925C31.6815 51.4458 31.4797 50.798 31.4796 50.1347V35.6403C31.4797 34.9769 31.6815 34.3292 32.0583 33.7824C32.435 33.2357 32.9692 32.8157 33.5902 32.5778L44.4743 28.404ZM48.4124 30.445C47.3985 30.0561 46.2759 30.0561 45.2619 30.445L42.2255 31.6109L54.4896 36.2396L58.7634 34.4153L48.4124 30.4428V30.445ZM60.0008 36.2637L47.9341 41.424V55.4853C48.0965 55.4437 48.2545 55.3934 48.4124 55.3321L59.2987 51.1584C59.5056 51.0788 59.6834 50.9386 59.8087 50.7562C59.9341 50.5739 60.001 50.3579 60.0008 50.1368V36.2681V36.2637ZM45.7402 55.4831V41.424L33.6736 36.2659V50.1347C33.6733 50.3557 33.7403 50.5717 33.8656 50.754C33.991 50.9364 34.1688 51.0766 34.3756 51.1562L45.2619 55.33C45.4199 55.3912 45.5779 55.4415 45.7402 55.4831ZM34.911 34.4153L46.8372 39.5121L51.5849 37.4821L39.1518 32.7878L34.911 34.4153Z" fill="#D8191E"/>
</svg>
