<svg width="31" height="30" viewBox="0 0 31 30" fill="none" xmlns="http://www.w3.org/2000/svg">
<path d="M27.0378 20.7931C26.4183 22.1671 26.1198 22.7806 25.3218 23.9956C24.2088 25.6905 22.6368 27.8026 20.6913 27.8206C18.9633 27.8356 18.5193 26.6955 16.1718 26.709C13.8258 26.7211 13.3368 27.8415 11.6073 27.825C9.66183 27.807 8.17233 25.9006 7.05783 24.2041C3.94233 19.4641 3.61683 13.8991 5.53833 10.9396C6.90333 8.83805 9.05883 7.60805 11.0838 7.60805C13.1463 7.60805 14.4438 8.73905 16.1478 8.73905C17.8023 8.73905 18.8103 7.60505 21.1953 7.60505C22.9953 7.60505 24.9063 8.58755 26.2668 10.2825C21.8088 12.7261 22.5318 19.0921 27.0378 20.7931ZM19.3863 5.71205C20.2518 4.59905 20.9103 3.03005 20.6718 1.42505C19.2558 1.52255 17.6013 2.42255 16.6338 3.59705C15.7578 4.66205 15.0333 6.24155 15.3138 7.77755C16.8588 7.82405 18.4578 6.90155 19.3863 5.71205Z" fill="url(#paint0_linear_1_179)"/>
<defs>
<linearGradient id="paint0_linear_1_179" x1="4.34543" y1="1.42505" x2="27.0377" y2="31.1494" gradientUnits="userSpaceOnUse">
<stop stop-color="#E5E5E5"/>
<stop offset="1" stop-color="white"/>
</linearGradient>
</defs>
</svg>
